<svg width="985" height="985" viewBox="0 0 985 985" fill="none" xmlns="http://www.w3.org/2000/svg">
<path fill-rule="evenodd" clip-rule="evenodd" d="M588.771 312.299C574.341 253.445 540.123 137.274 501.43 71.8463C501.151 71.3258 500.855 70.829 500.544 70.3581C500.072 69.5706 499.599 68.7907 499.126 68.0187C498.435 66.8922 497.42 66.3179 496.377 66.2018C495.064 65.4242 493.647 65 492.169 65C490.654 65 489.204 65.4452 487.864 66.2596C486.854 66.4002 485.878 66.9754 485.209 68.0712C484.834 68.6856 484.459 69.305 484.085 69.9292C483.553 70.686 483.06 71.5164 482.615 72.4105C444.228 137.931 410.314 253.583 395.983 312.276C395.269 315.201 391.71 316.327 389.441 314.348L308.242 243.542C306.068 241.646 302.676 242.599 301.935 245.388C288.712 295.16 295.763 373.383 302.184 414.53C302.715 417.934 299.004 420.432 296.064 418.636L202.406 361.42C199.817 359.838 196.492 361.601 196.44 364.634C195.282 432.234 226.083 518.324 245.15 560.971C246.577 564.164 243.555 567.599 240.222 566.54L138.119 534.116C135.506 533.286 132.854 535.277 133.006 538.013C137.779 624.08 210.475 699.471 247.963 727.692C247.975 727.701 247.987 727.71 248 727.719C247.985 727.965 247.978 728.213 247.978 728.462C247.978 729.689 248.157 730.874 248.492 731.991C242.992 748.062 234.536 780.578 234.168 812.418C234.125 816.093 238.853 817.786 241.512 815.249C261.401 796.278 296.476 776.84 300.541 776.84C301.965 776.84 304.692 784.071 308.668 794.614C316.934 816.532 330.598 852.762 349.172 868.083C351.272 869.815 354.353 868.584 355.386 866.066C362.147 849.581 382.876 822.126 392.832 809.418C394.64 807.11 398.217 807.495 399.539 810.111C415.824 842.357 443.916 889.427 482.772 916.066C485.026 918.739 488.399 920.437 492.169 920.437C495.895 920.437 499.235 918.777 501.488 916.157C540.66 889.523 568.972 842.356 585.37 810.072C586.694 807.466 590.257 807.084 592.066 809.379C602.074 822.077 622.979 849.592 629.776 866.091C630.81 868.602 633.88 869.831 635.982 868.112C654.683 852.808 668.44 816.548 676.76 794.617L676.761 794.616L676.761 794.615L676.761 794.614C680.761 784.071 683.504 776.84 684.937 776.84C689.03 776.84 724.378 796.316 744.375 815.304C747.036 817.831 751.747 816.137 751.706 812.469C751.345 780.699 742.878 748.247 737.341 732.123C737.701 730.967 737.896 729.737 737.896 728.462C737.896 728.094 737.879 727.729 737.848 727.369C775.62 698.899 848.095 623.75 852.866 538.007C853.019 535.272 850.371 533.281 847.759 534.107L745.163 566.549C741.828 567.604 738.81 564.164 740.243 560.973C759.392 518.323 790.329 432.221 789.161 364.618C789.109 361.588 785.79 359.826 783.201 361.4L689.076 418.657C686.134 420.447 682.43 417.946 682.963 414.545C689.413 373.395 696.499 295.142 683.209 245.365C682.467 242.583 679.083 241.63 676.909 243.517L595.306 314.374C593.036 316.344 589.487 315.218 588.771 312.299Z" fill="#636363"/>
<path fill-rule="evenodd" clip-rule="evenodd" d="M588.771 312.299C574.341 253.445 540.123 137.274 501.43 71.8463C501.151 71.3258 500.855 70.829 500.544 70.3581C500.072 69.5706 499.599 68.7907 499.126 68.0187C498.435 66.8922 497.42 66.3179 496.377 66.2018C495.064 65.4242 493.647 65 492.169 65C490.654 65 489.204 65.4452 487.864 66.2596C486.854 66.4002 485.878 66.9754 485.209 68.0712C484.834 68.6856 484.459 69.305 484.085 69.9292C483.553 70.686 483.06 71.5164 482.615 72.4105C444.228 137.931 410.314 253.583 395.983 312.276C395.269 315.201 391.71 316.327 389.441 314.348L308.242 243.542C306.068 241.646 302.676 242.599 301.935 245.388C288.712 295.16 295.763 373.383 302.184 414.53C302.715 417.934 299.004 420.432 296.064 418.636L202.406 361.42C199.817 359.838 196.492 361.601 196.44 364.634C195.282 432.234 226.083 518.324 245.15 560.971C246.577 564.164 243.555 567.599 240.222 566.54L138.119 534.116C135.506 533.286 132.854 535.277 133.006 538.013C137.779 624.08 210.475 699.471 247.963 727.692C247.975 727.701 247.987 727.71 248 727.719C247.985 727.965 247.978 728.213 247.978 728.462C247.978 729.689 248.157 730.874 248.492 731.991C242.992 748.062 234.536 780.578 234.168 812.418C234.125 816.093 238.853 817.786 241.512 815.249C261.401 796.278 296.476 776.84 300.541 776.84C301.965 776.84 304.692 784.071 308.668 794.614C316.934 816.532 330.598 852.762 349.172 868.083C351.272 869.815 354.353 868.584 355.386 866.066C362.147 849.581 382.876 822.126 392.832 809.418C394.64 807.11 398.217 807.495 399.539 810.111C415.824 842.357 443.916 889.427 482.772 916.066C485.026 918.739 488.399 920.437 492.169 920.437C495.895 920.437 499.235 918.777 501.488 916.157C540.66 889.523 568.972 842.356 585.37 810.072C586.694 807.466 590.257 807.084 592.066 809.379C602.074 822.077 622.979 849.592 629.776 866.091C630.81 868.602 633.88 869.831 635.982 868.112C654.683 852.808 668.44 816.548 676.76 794.617L676.761 794.616L676.761 794.615L676.761 794.614C680.761 784.071 683.504 776.84 684.937 776.84C689.03 776.84 724.378 796.316 744.375 815.304C747.036 817.831 751.747 816.137 751.706 812.469C751.345 780.699 742.878 748.247 737.341 732.123C737.701 730.967 737.896 729.737 737.896 728.462C737.896 728.094 737.879 727.729 737.848 727.369C775.62 698.899 848.095 623.75 852.866 538.007C853.019 535.272 850.371 533.281 847.759 534.107L745.163 566.549C741.828 567.604 738.81 564.164 740.243 560.973C759.392 518.323 790.329 432.221 789.161 364.618C789.109 361.588 785.79 359.826 783.201 361.4L689.076 418.657C686.134 420.447 682.43 417.946 682.963 414.545C689.413 373.395 696.499 295.142 683.209 245.365C682.467 242.583 679.083 241.63 676.909 243.517L595.306 314.374C593.036 316.344 589.487 315.218 588.771 312.299Z" fill="url(#paint0_linear_0_1)"/>
<path d="M406.496 394.039C467.937 387.032 498.312 479.515 498.312 479.515V812.163C498.312 812.163 432.729 813.716 406.496 787.092C380.263 760.468 387.166 621.043 387.166 621.043C387.166 621.043 280.163 555.184 284.995 517.349C289.828 479.515 345.055 401.045 406.496 394.039Z" fill="#434140"/>
<path d="M406.496 394.039C467.937 387.032 498.312 479.515 498.312 479.515V812.163C498.312 812.163 432.729 813.716 406.496 787.092C380.263 760.468 387.166 621.043 387.166 621.043C387.166 621.043 280.163 555.184 284.995 517.349C289.828 479.515 345.055 401.045 406.496 394.039Z" fill="url(#paint1_linear_0_1)" fill-opacity="0.2"/>
<path d="M576.305 394.039C514.865 387.032 484.49 479.515 484.49 479.515V812.163C484.49 812.163 550.072 813.716 576.305 787.092C602.538 760.468 595.635 621.043 595.635 621.043C595.635 621.043 702.638 555.184 697.806 517.349C692.974 479.515 637.746 401.045 576.305 394.039Z" fill="#434140"/>
<path d="M576.305 394.039C514.865 387.032 484.49 479.515 484.49 479.515V812.163C484.49 812.163 550.072 813.716 576.305 787.092C602.538 760.468 595.635 621.043 595.635 621.043C595.635 621.043 702.638 555.184 697.806 517.349C692.974 479.515 637.746 401.045 576.305 394.039Z" fill="url(#paint2_linear_0_1)" fill-opacity="0.2"/>
<path d="M388.588 520.634C348.657 579.762 388.588 678.821 388.588 678.821L408.553 699.554L477.664 694.179V581.298C477.664 581.298 428.519 461.506 388.588 520.634Z" fill="url(#paint3_linear_0_1)"/>
<path d="M598.139 520.634C638.069 579.762 598.139 678.821 598.139 678.821L578.173 699.554L509.062 694.179V581.298C509.062 581.298 558.208 461.506 598.139 520.634Z" fill="url(#paint4_linear_0_1)"/>
<mask id="mask0_0_1" style="mask-type:alpha" maskUnits="userSpaceOnUse" x="370" y="504" width="246" height="196">
<path d="M388.588 520.634C348.657 579.762 388.588 678.821 388.588 678.821L408.553 699.554L477.664 694.179V581.298C477.664 581.298 428.519 461.506 388.588 520.634Z" fill="url(#paint5_linear_0_1)"/>
<path d="M598.139 520.634C638.069 579.762 598.139 678.821 598.139 678.821L578.173 699.554L509.062 694.179V581.298C509.062 581.298 558.208 461.506 598.139 520.634Z" fill="url(#paint6_linear_0_1)"/>
</mask>
<g mask="url(#mask0_0_1)">
<path fill-rule="evenodd" clip-rule="evenodd" d="M438.203 678.983C437.841 678.983 437.495 678.888 437.201 678.676C421.553 667.4 415.111 607.295 413.843 578.389C413.843 547.929 415.225 505.285 420.754 578.389C425.018 634.759 434.121 662.182 440.881 673.191C441.91 674.866 440.169 678.983 438.203 678.983ZM385.431 578.723C386.699 607.629 393.141 667.734 408.789 679.01C409.083 679.222 409.429 679.317 409.791 679.317C411.757 679.317 413.498 675.2 412.469 673.525C405.709 662.516 396.605 635.093 392.342 578.723C386.813 505.619 385.431 548.263 385.431 578.723ZM441.487 582.996C442.755 611.903 449.198 672.007 464.846 683.284C465.139 683.495 465.485 683.59 465.847 683.59C467.813 683.59 469.554 679.473 468.526 677.798C461.765 666.789 452.662 639.367 448.399 582.996C442.87 509.892 441.487 552.536 441.487 582.996ZM598.906 578.723C597.638 607.629 591.196 667.734 575.548 679.01C575.254 679.222 574.909 679.317 574.546 679.317C572.581 679.317 570.839 675.2 571.868 673.525C578.629 662.516 587.732 635.093 591.995 578.723C597.524 505.619 598.906 548.263 598.906 578.723ZM518.49 683.59C518.852 683.59 519.198 683.495 519.492 683.284C535.14 672.007 541.582 611.903 542.85 582.996C542.85 552.536 541.468 509.892 535.939 582.996C531.675 639.367 522.572 666.789 515.812 677.798C514.783 679.473 516.524 683.59 518.49 683.59ZM570.494 578.389C569.226 607.295 562.784 667.4 547.136 678.676C546.842 678.888 546.496 678.983 546.134 678.983C544.168 678.983 542.427 674.866 543.456 673.191C550.216 662.182 559.32 634.759 563.583 578.389C569.112 505.285 570.494 547.929 570.494 578.389Z" fill="url(#paint7_linear_0_1)" fill-opacity="0.68"/>
<g filter="url(#filter0_f_0_1)">
<path fill-rule="evenodd" clip-rule="evenodd" d="M577.405 593.313C535.419 593.313 501.383 564.777 501.383 529.577C501.383 494.377 535.419 465.842 577.405 465.842C619.391 465.842 653.427 494.377 653.427 529.577C653.427 564.777 619.391 593.313 577.405 593.313ZM405.396 593.313C447.382 593.313 481.418 564.777 481.418 529.577C481.418 494.377 447.382 465.842 405.396 465.842C363.411 465.842 329.375 494.377 329.375 529.577C329.375 564.777 363.411 593.313 405.396 593.313Z" fill="#1E87FF" fill-opacity="0.74"/>
</g>
</g>
<path fill-rule="evenodd" clip-rule="evenodd" d="M479.811 432.055C478.154 432.055 476.811 433.398 476.811 435.055V481.999L476.77 481.968V669.335C476.77 669.335 441.406 683.157 383.854 669.335C326.303 655.512 477.538 816.003 493.664 811.395C494.014 811.295 494.349 811.05 494.67 810.666C516.836 807.226 659.097 655.094 603.002 668.567C545.45 682.389 510.086 668.567 510.086 668.567V533.629C510.409 533.151 510.598 532.574 510.598 531.953V435.055C510.598 433.398 509.255 432.055 507.598 432.055H479.811Z" fill="#FF5050"/>
<path fill-rule="evenodd" clip-rule="evenodd" d="M479.811 432.055C478.154 432.055 476.811 433.398 476.811 435.055V481.999L476.77 481.968V669.335C476.77 669.335 441.406 683.157 383.854 669.335C326.303 655.512 477.538 816.003 493.664 811.395C494.014 811.295 494.349 811.05 494.67 810.666C516.836 807.226 659.097 655.094 603.002 668.567C545.45 682.389 510.086 668.567 510.086 668.567V533.629C510.409 533.151 510.598 532.574 510.598 531.953V435.055C510.598 433.398 509.255 432.055 507.598 432.055H479.811Z" fill="url(#paint8_linear_0_1)" fill-opacity="0.2"/>
<defs>
<filter id="filter0_f_0_1" x="272.875" y="409.342" width="437.052" height="240.471" filterUnits="userSpaceOnUse" color-interpolation-filters="sRGB">
<feFlood flood-opacity="0" result="BackgroundImageFix"/>
<feBlend mode="normal" in="SourceGraphic" in2="BackgroundImageFix" result="shape"/>
<feGaussianBlur stdDeviation="28.25" result="effect1_foregroundBlur_0_1"/>
</filter>
<linearGradient id="paint0_linear_0_1" x1="492.936" y1="65" x2="492.936" y2="920.437" gradientUnits="userSpaceOnUse">
<stop stop-color="#7C7C7C"/>
<stop offset="1" stop-color="#5D5D5D"/>
</linearGradient>
<linearGradient id="paint1_linear_0_1" x1="391.574" y1="393.66" x2="391.574" y2="812.18" gradientUnits="userSpaceOnUse">
<stop stop-color="#707070"/>
<stop offset="1" stop-color="#181818"/>
</linearGradient>
<linearGradient id="paint2_linear_0_1" x1="591.227" y1="393.66" x2="591.227" y2="812.18" gradientUnits="userSpaceOnUse">
<stop stop-color="#707070"/>
<stop offset="1" stop-color="#181818"/>
</linearGradient>
<linearGradient id="paint3_linear_0_1" x1="424.253" y1="504.237" x2="424.253" y2="699.554" gradientUnits="userSpaceOnUse">
<stop offset="0.29" stop-color="#62ABFF"/>
<stop offset="1" stop-color="#3091FF"/>
</linearGradient>
<linearGradient id="paint4_linear_0_1" x1="562.474" y1="504.237" x2="562.474" y2="699.554" gradientUnits="userSpaceOnUse">
<stop offset="0.29" stop-color="#62ABFF"/>
<stop offset="1" stop-color="#3091FF"/>
</linearGradient>
<linearGradient id="paint5_linear_0_1" x1="424.253" y1="504.237" x2="424.253" y2="699.554" gradientUnits="userSpaceOnUse">
<stop offset="0.29" stop-color="#62ABFF"/>
<stop offset="1" stop-color="#3091FF"/>
</linearGradient>
<linearGradient id="paint6_linear_0_1" x1="562.474" y1="504.237" x2="562.474" y2="699.554" gradientUnits="userSpaceOnUse">
<stop offset="0.29" stop-color="#62ABFF"/>
<stop offset="1" stop-color="#3091FF"/>
</linearGradient>
<linearGradient id="paint7_linear_0_1" x1="492.169" y1="538.024" x2="492.169" y2="683.59" gradientUnits="userSpaceOnUse">
<stop stop-color="#4098EA"/>
<stop offset="1" stop-color="#6575FF"/>
</linearGradient>
<linearGradient id="paint8_linear_0_1" x1="493.428" y1="432.055" x2="493.428" y2="811.493" gradientUnits="userSpaceOnUse">
<stop stop-color="#FFB9B9"/>
<stop offset="1" stop-color="#C91717"/>
</linearGradient>
</defs>
</svg>
