<svg width="986" height="986" viewBox="0 0 986 986" fill="none" xmlns="http://www.w3.org/2000/svg">
<circle cx="493" cy="493" r="493" fill="#B8FFFA"/>
<path fill-rule="evenodd" clip-rule="evenodd" d="M588.771 313.299C574.341 254.445 540.123 138.274 501.43 72.8463C501.151 72.3258 500.855 71.829 500.544 71.3581C500.072 70.5706 499.599 69.7907 499.126 69.0187C498.435 67.8922 497.42 67.3179 496.377 67.2018C495.064 66.4242 493.647 66 492.169 66C490.654 66 489.204 66.4452 487.864 67.2596C486.854 67.4002 485.878 67.9754 485.209 69.0712C484.834 69.6856 484.459 70.305 484.085 70.9292C483.553 71.686 483.06 72.5164 482.615 73.4105C444.228 138.931 410.314 254.583 395.983 313.276C395.269 316.201 391.71 317.327 389.441 315.348L308.242 244.542C306.068 242.646 302.676 243.599 301.935 246.388C288.712 296.16 295.763 374.383 302.184 415.53C302.715 418.934 299.004 421.432 296.064 419.636L202.406 362.42C199.817 360.838 196.492 362.601 196.44 365.634C195.282 433.234 226.083 519.324 245.15 561.971C246.577 565.164 243.555 568.599 240.222 567.54L138.119 535.116C135.506 534.286 132.854 536.277 133.006 539.013C137.779 625.08 210.475 700.471 247.963 728.692C247.975 728.701 247.987 728.71 248 728.719C247.985 728.965 247.978 729.213 247.978 729.462C247.978 730.689 248.157 731.874 248.492 732.991C242.992 749.062 234.536 781.578 234.168 813.418C234.125 817.093 238.853 818.786 241.512 816.249C261.401 797.278 296.476 777.84 300.541 777.84C301.965 777.84 304.692 785.071 308.668 795.614C316.934 817.532 330.598 853.762 349.172 869.083C351.272 870.815 354.353 869.584 355.386 867.066C362.147 850.581 382.876 823.126 392.832 810.418C394.64 808.11 398.217 808.495 399.539 811.111C415.824 843.357 443.916 890.427 482.772 917.066C485.026 919.739 488.399 921.437 492.169 921.437C495.895 921.437 499.235 919.777 501.488 917.157C540.66 890.523 568.972 843.356 585.37 811.072C586.694 808.466 590.257 808.084 592.066 810.379C602.074 823.077 622.979 850.592 629.776 867.091C630.81 869.602 633.88 870.831 635.982 869.112C654.683 853.808 668.44 817.548 676.76 795.617L676.761 795.616L676.761 795.615L676.761 795.614C680.761 785.071 683.504 777.84 684.937 777.84C689.03 777.84 724.378 797.316 744.375 816.304C747.036 818.831 751.747 817.137 751.706 813.469C751.345 781.699 742.878 749.247 737.341 733.123C737.701 731.967 737.896 730.737 737.896 729.462C737.896 729.094 737.879 728.729 737.848 728.369C775.62 699.899 848.095 624.75 852.866 539.007C853.019 536.272 850.371 534.281 847.759 535.107L745.163 567.549C741.828 568.604 738.81 565.164 740.243 561.973C759.392 519.323 790.329 433.221 789.161 365.618C789.109 362.588 785.79 360.826 783.201 362.4L689.076 419.657C686.134 421.447 682.43 418.946 682.963 415.545C689.413 374.395 696.499 296.142 683.209 246.365C682.467 243.583 679.083 242.63 676.909 244.517L595.306 315.374C593.036 317.344 589.487 316.218 588.771 313.299Z" fill="#636363"/>
<path fill-rule="evenodd" clip-rule="evenodd" d="M588.771 313.299C574.341 254.445 540.123 138.274 501.43 72.8463C501.151 72.3258 500.855 71.829 500.544 71.3581C500.072 70.5706 499.599 69.7907 499.126 69.0187C498.435 67.8922 497.42 67.3179 496.377 67.2018C495.064 66.4242 493.647 66 492.169 66C490.654 66 489.204 66.4452 487.864 67.2596C486.854 67.4002 485.878 67.9754 485.209 69.0712C484.834 69.6856 484.459 70.305 484.085 70.9292C483.553 71.686 483.06 72.5164 482.615 73.4105C444.228 138.931 410.314 254.583 395.983 313.276C395.269 316.201 391.71 317.327 389.441 315.348L308.242 244.542C306.068 242.646 302.676 243.599 301.935 246.388C288.712 296.16 295.763 374.383 302.184 415.53C302.715 418.934 299.004 421.432 296.064 419.636L202.406 362.42C199.817 360.838 196.492 362.601 196.44 365.634C195.282 433.234 226.083 519.324 245.15 561.971C246.577 565.164 243.555 568.599 240.222 567.54L138.119 535.116C135.506 534.286 132.854 536.277 133.006 539.013C137.779 625.08 210.475 700.471 247.963 728.692C247.975 728.701 247.987 728.71 248 728.719C247.985 728.965 247.978 729.213 247.978 729.462C247.978 730.689 248.157 731.874 248.492 732.991C242.992 749.062 234.536 781.578 234.168 813.418C234.125 817.093 238.853 818.786 241.512 816.249C261.401 797.278 296.476 777.84 300.541 777.84C301.965 777.84 304.692 785.071 308.668 795.614C316.934 817.532 330.598 853.762 349.172 869.083C351.272 870.815 354.353 869.584 355.386 867.066C362.147 850.581 382.876 823.126 392.832 810.418C394.64 808.11 398.217 808.495 399.539 811.111C415.824 843.357 443.916 890.427 482.772 917.066C485.026 919.739 488.399 921.437 492.169 921.437C495.895 921.437 499.235 919.777 501.488 917.157C540.66 890.523 568.972 843.356 585.37 811.072C586.694 808.466 590.257 808.084 592.066 810.379C602.074 823.077 622.979 850.592 629.776 867.091C630.81 869.602 633.88 870.831 635.982 869.112C654.683 853.808 668.44 817.548 676.76 795.617L676.761 795.616L676.761 795.615L676.761 795.614C680.761 785.071 683.504 777.84 684.937 777.84C689.03 777.84 724.378 797.316 744.375 816.304C747.036 818.831 751.747 817.137 751.706 813.469C751.345 781.699 742.878 749.247 737.341 733.123C737.701 731.967 737.896 730.737 737.896 729.462C737.896 729.094 737.879 728.729 737.848 728.369C775.62 699.899 848.095 624.75 852.866 539.007C853.019 536.272 850.371 534.281 847.759 535.107L745.163 567.549C741.828 568.604 738.81 565.164 740.243 561.973C759.392 519.323 790.329 433.221 789.161 365.618C789.109 362.588 785.79 360.826 783.201 362.4L689.076 419.657C686.134 421.447 682.43 418.946 682.963 415.545C689.413 374.395 696.499 296.142 683.209 246.365C682.467 243.583 679.083 242.63 676.909 244.517L595.306 315.374C593.036 317.344 589.487 316.218 588.771 313.299Z" fill="url(#paint0_linear_0_1)"/>
<path d="M406.496 395.039C467.937 388.032 498.312 480.515 498.312 480.515V813.163C498.312 813.163 432.729 814.716 406.496 788.092C380.263 761.468 387.166 622.043 387.166 622.043C387.166 622.043 280.163 556.184 284.995 518.349C289.828 480.515 345.055 402.045 406.496 395.039Z" fill="#434140"/>
<path d="M406.496 395.039C467.937 388.032 498.312 480.515 498.312 480.515V813.163C498.312 813.163 432.729 814.716 406.496 788.092C380.263 761.468 387.166 622.043 387.166 622.043C387.166 622.043 280.163 556.184 284.995 518.349C289.828 480.515 345.055 402.045 406.496 395.039Z" fill="url(#paint1_linear_0_1)" fill-opacity="0.2"/>
<path d="M576.305 395.039C514.865 388.032 484.49 480.515 484.49 480.515V813.163C484.49 813.163 550.072 814.716 576.305 788.092C602.538 761.468 595.635 622.043 595.635 622.043C595.635 622.043 702.638 556.184 697.806 518.349C692.974 480.515 637.746 402.045 576.305 395.039Z" fill="#434140"/>
<path d="M576.305 395.039C514.865 388.032 484.49 480.515 484.49 480.515V813.163C484.49 813.163 550.072 814.716 576.305 788.092C602.538 761.468 595.635 622.043 595.635 622.043C595.635 622.043 702.638 556.184 697.806 518.349C692.974 480.515 637.746 402.045 576.305 395.039Z" fill="url(#paint2_linear_0_1)" fill-opacity="0.2"/>
<path d="M388.588 521.634C348.657 580.762 388.588 679.821 388.588 679.821L408.553 700.554L477.664 695.179V582.298C477.664 582.298 428.519 462.506 388.588 521.634Z" fill="url(#paint3_linear_0_1)"/>
<path d="M598.139 521.634C638.069 580.762 598.139 679.821 598.139 679.821L578.173 700.554L509.062 695.179V582.298C509.062 582.298 558.208 462.506 598.139 521.634Z" fill="url(#paint4_linear_0_1)"/>
<mask id="mask0_0_1" style="mask-type:alpha" maskUnits="userSpaceOnUse" x="370" y="505" width="246" height="196">
<path d="M388.588 521.634C348.657 580.762 388.588 679.821 388.588 679.821L408.553 700.554L477.664 695.179V582.298C477.664 582.298 428.519 462.506 388.588 521.634Z" fill="url(#paint5_linear_0_1)"/>
<path d="M598.139 521.634C638.069 580.762 598.139 679.821 598.139 679.821L578.173 700.554L509.062 695.179V582.298C509.062 582.298 558.208 462.506 598.139 521.634Z" fill="url(#paint6_linear_0_1)"/>
</mask>
<g mask="url(#mask0_0_1)">
<path fill-rule="evenodd" clip-rule="evenodd" d="M438.203 679.983C437.841 679.983 437.495 679.888 437.201 679.676C421.553 668.4 415.111 608.295 413.843 579.389C413.843 548.929 415.225 506.285 420.754 579.389C425.018 635.759 434.121 663.182 440.881 674.191C441.91 675.866 440.169 679.983 438.203 679.983ZM385.431 579.723C386.699 608.629 393.141 668.734 408.789 680.01C409.083 680.222 409.429 680.317 409.791 680.317C411.757 680.317 413.498 676.2 412.469 674.525C405.709 663.516 396.605 636.093 392.342 579.723C386.813 506.619 385.431 549.263 385.431 579.723ZM441.487 583.996C442.755 612.903 449.198 673.007 464.846 684.284C465.139 684.495 465.485 684.59 465.847 684.59C467.813 684.59 469.554 680.473 468.526 678.798C461.765 667.789 452.662 640.367 448.399 583.996C442.87 510.892 441.487 553.536 441.487 583.996ZM598.906 579.723C597.638 608.629 591.196 668.734 575.548 680.01C575.254 680.222 574.909 680.317 574.546 680.317C572.581 680.317 570.839 676.2 571.868 674.525C578.629 663.516 587.732 636.093 591.995 579.723C597.524 506.619 598.906 549.263 598.906 579.723ZM518.49 684.59C518.852 684.59 519.198 684.495 519.492 684.284C535.14 673.007 541.582 612.903 542.85 583.996C542.85 553.536 541.468 510.892 535.939 583.996C531.675 640.367 522.572 667.789 515.812 678.798C514.783 680.473 516.524 684.59 518.49 684.59ZM570.494 579.389C569.226 608.295 562.784 668.4 547.136 679.676C546.842 679.888 546.496 679.983 546.134 679.983C544.168 679.983 542.427 675.866 543.456 674.191C550.216 663.182 559.32 635.759 563.583 579.389C569.112 506.285 570.494 548.929 570.494 579.389Z" fill="url(#paint7_linear_0_1)" fill-opacity="0.68"/>
<g filter="url(#filter0_f_0_1)">
<path fill-rule="evenodd" clip-rule="evenodd" d="M577.405 594.313C535.419 594.313 501.383 565.777 501.383 530.577C501.383 495.377 535.419 466.842 577.405 466.842C619.391 466.842 653.427 495.377 653.427 530.577C653.427 565.777 619.391 594.313 577.405 594.313ZM405.396 594.313C447.382 594.313 481.418 565.777 481.418 530.577C481.418 495.377 447.382 466.842 405.396 466.842C363.411 466.842 329.375 495.377 329.375 530.577C329.375 565.777 363.411 594.313 405.396 594.313Z" fill="#1E87FF" fill-opacity="0.74"/>
</g>
</g>
<path fill-rule="evenodd" clip-rule="evenodd" d="M479.811 433.055C478.154 433.055 476.811 434.398 476.811 436.055V482.999L476.77 482.968V670.335C476.77 670.335 441.406 684.157 383.854 670.335C326.303 656.512 477.538 817.003 493.664 812.395C494.014 812.295 494.349 812.05 494.67 811.666C516.836 808.226 659.097 656.094 603.002 669.567C545.45 683.389 510.086 669.567 510.086 669.567V534.629C510.409 534.151 510.598 533.574 510.598 532.953V436.055C510.598 434.398 509.255 433.055 507.598 433.055H479.811Z" fill="#FF5050"/>
<path fill-rule="evenodd" clip-rule="evenodd" d="M479.811 433.055C478.154 433.055 476.811 434.398 476.811 436.055V482.999L476.77 482.968V670.335C476.77 670.335 441.406 684.157 383.854 670.335C326.303 656.512 477.538 817.003 493.664 812.395C494.014 812.295 494.349 812.05 494.67 811.666C516.836 808.226 659.097 656.094 603.002 669.567C545.45 683.389 510.086 669.567 510.086 669.567V534.629C510.409 534.151 510.598 533.574 510.598 532.953V436.055C510.598 434.398 509.255 433.055 507.598 433.055H479.811Z" fill="url(#paint8_linear_0_1)" fill-opacity="0.2"/>
<defs>
<filter id="filter0_f_0_1" x="272.875" y="410.342" width="437.052" height="240.471" filterUnits="userSpaceOnUse" color-interpolation-filters="sRGB">
<feFlood flood-opacity="0" result="BackgroundImageFix"/>
<feBlend mode="normal" in="SourceGraphic" in2="BackgroundImageFix" result="shape"/>
<feGaussianBlur stdDeviation="28.25" result="effect1_foregroundBlur_0_1"/>
</filter>
<linearGradient id="paint0_linear_0_1" x1="492.936" y1="66" x2="492.936" y2="921.437" gradientUnits="userSpaceOnUse">
<stop stop-color="#7C7C7C"/>
<stop offset="1" stop-color="#5D5D5D"/>
</linearGradient>
<linearGradient id="paint1_linear_0_1" x1="391.574" y1="394.66" x2="391.574" y2="813.18" gradientUnits="userSpaceOnUse">
<stop stop-color="#707070"/>
<stop offset="1" stop-color="#181818"/>
</linearGradient>
<linearGradient id="paint2_linear_0_1" x1="591.227" y1="394.66" x2="591.227" y2="813.18" gradientUnits="userSpaceOnUse">
<stop stop-color="#707070"/>
<stop offset="1" stop-color="#181818"/>
</linearGradient>
<linearGradient id="paint3_linear_0_1" x1="424.253" y1="505.237" x2="424.253" y2="700.554" gradientUnits="userSpaceOnUse">
<stop offset="0.29" stop-color="#62ABFF"/>
<stop offset="1" stop-color="#3091FF"/>
</linearGradient>
<linearGradient id="paint4_linear_0_1" x1="562.474" y1="505.237" x2="562.474" y2="700.554" gradientUnits="userSpaceOnUse">
<stop offset="0.29" stop-color="#62ABFF"/>
<stop offset="1" stop-color="#3091FF"/>
</linearGradient>
<linearGradient id="paint5_linear_0_1" x1="424.253" y1="505.237" x2="424.253" y2="700.554" gradientUnits="userSpaceOnUse">
<stop offset="0.29" stop-color="#62ABFF"/>
<stop offset="1" stop-color="#3091FF"/>
</linearGradient>
<linearGradient id="paint6_linear_0_1" x1="562.474" y1="505.237" x2="562.474" y2="700.554" gradientUnits="userSpaceOnUse">
<stop offset="0.29" stop-color="#62ABFF"/>
<stop offset="1" stop-color="#3091FF"/>
</linearGradient>
<linearGradient id="paint7_linear_0_1" x1="492.169" y1="539.024" x2="492.169" y2="684.59" gradientUnits="userSpaceOnUse">
<stop stop-color="#4098EA"/>
<stop offset="1" stop-color="#6575FF"/>
</linearGradient>
<linearGradient id="paint8_linear_0_1" x1="493.428" y1="433.055" x2="493.428" y2="812.493" gradientUnits="userSpaceOnUse">
<stop stop-color="#FFB9B9"/>
<stop offset="1" stop-color="#C91717"/>
</linearGradient>
</defs>
</svg>
